<svg version="1.1" id="Layer_1" xmlns="http://www.w3.org/2000/svg" xmlns:xlink="http://www.w3.org/1999/xlink" viewBox="0 0 508.00 508.00" xml:space="preserve" width="91px" height="91px" fill="#000000"><g id="SVGRepo_bgCarrier" stroke-width="0"></g><g id="SVGRepo_tracerCarrier" stroke-linecap="round" stroke-linejoin="round"></g><g id="SVGRepo_iconCarrier"> <circle style="fill:#ffffff;" cx="254" cy="254" r="254"></circle> <path style="fill:#324A5E;" d="M377.7,420.8H130.3c-1.7,0-3.1-1.4-3.1-3.1V90.3c0-1.7,1.4-3.1,3.1-3.1h247.5c1.7,0,3.1,1.4,3.1,3.1 v327.3C380.9,419.4,379.5,420.8,377.7,420.8z"></path> <rect x="192.4" y="87.2" style="fill:#E6E9EE;" width="123.2" height="35.8"></rect> <polygon style="fill:#FFFFFF;" points="145.3,115 145.3,375.2 319.5,375.2 319.5,332 362.7,332 362.7,115 "></polygon> <polygon style="fill:#E6E9EE;" points="319.5,375.2 362.7,332 319.5,332 "></polygon> <path style="fill:#FFD05B;" d="M254,134.3c-5.2,0-9.9-0.9-13-2.6c-3.7-2-7.4-3-10.9-3h-43.6c-3.3,0-6-2.7-6-6v-20.9c0-3.3,2.7-6,6-6 h134.9c3.3,0,6,2.7,6,6v20.9c0,3.3-2.7,6-6,6h-43.6c-3.5,0-7.2,1-10.9,3C263.9,133.4,259.2,134.3,254,134.3z M186.5,99.8 c-1.1,0-2.1,0.9-2.1,2.1v20.9c0,1.1,0.9,2.1,2.1,2.1h43.6c4.2,0,8.5,1.2,12.8,3.4c2.5,1.3,6.6,2.1,11.1,2.1c4.5,0,8.6-0.8,11.1-2.1 c4.3-2.3,8.6-3.4,12.8-3.4h43.6c1.1,0,2.1-0.9,2.1-2.1v-20.9c0-1.1-0.9-2.1-2.1-2.1H186.5z"></path> <rect x="198.8" y="91.3" style="fill:#FFFFFF;" width="110.5" height="13"></rect> <g> <rect x="167.9" y="161.9" style="fill:#E6E9EE;" width="22" height="9.4"></rect> <rect x="202.8" y="161.9" style="fill:#E6E9EE;" width="137.3" height="9.4"></rect> <rect x="167.9" y="187.3" style="fill:#E6E9EE;" width="22" height="9.4"></rect> <rect x="202.8" y="187.3" style="fill:#E6E9EE;" width="137.3" height="9.4"></rect> <rect x="167.9" y="212.6" style="fill:#E6E9EE;" width="22" height="9.4"></rect> <rect x="202.8" y="212.6" style="fill:#E6E9EE;" width="137.3" height="9.4"></rect> <rect x="167.9" y="237.9" style="fill:#E6E9EE;" width="22" height="9.4"></rect> <rect x="202.8" y="237.9" style="fill:#E6E9EE;" width="137.3" height="9.4"></rect> <rect x="167.9" y="263.2" style="fill:#E6E9EE;" width="22" height="9.4"></rect> <rect x="202.8" y="263.2" style="fill:#E6E9EE;" width="137.3" height="9.4"></rect> <rect x="167.9" y="288.6" style="fill:#E6E9EE;" width="22" height="9.4"></rect> <rect x="202.8" y="288.6" style="fill:#E6E9EE;" width="137.3" height="9.4"></rect> </g> </g></svg>